<svg id="Layer_1" data-name="Layer 1" xmlns="http://www.w3.org/2000/svg" viewBox="0 0 32 32">
  <defs>
    <style>
      .cls-1 {
        fill: #39464e;
      }
    </style>
  </defs>
  <title>iconAct-Mobile_Phone_Wapple</title>
  <g>
    <path class="cls-1" d="M22,32H10a3.00328,3.00328,0,0,1-3-3V3a3.00328,3.00328,0,0,1,3-3H22a3.00328,3.00328,0,0,1,3,3V29A3.00328,3.00328,0,0,1,22,32ZM10,2A1.00067,1.00067,0,0,0,9,3V29a1.00067,1.00067,0,0,0,1,1H22a1.00067,1.00067,0,0,0,1-1V3a1.00067,1.00067,0,0,0-1-1Z"/>
    <path class="cls-1" d="M16,25a1,1,0,1,1-1,1,1.00115,1.00115,0,0,1,1-1m0-1a2,2,0,1,0,2,2,2,2,0,0,0-2-2Z"/>
    <path class="cls-1" d="M16.78735,12.25329a2.23,2.23,0,0,1,1.89936-.09088c.13224-.66869-1.01855-1.70331-2.34957-.99391a1.297,1.297,0,0,0-.694,1.214,1.43889,1.43889,0,0,0,.40135.85244,1.4571,1.4571,0,0,1,.74285-.9816"/>
    <path class="cls-1" d="M15.43714,14.50211a.935.935,0,0,1,.70082.29176,1.27368,1.27368,0,0,1,.35383.93582,2.12815,2.12815,0,0,1-.47507,1.30373,2.19863,2.19863,0,0,1-.47616-1.32727,1.36188,1.36188,0,0,1,.21586-.78047.89536.89536,0,0,0-.46032-.19914.872.872,0,0,0-.61413.12256,1.10385,1.10385,0,0,1,.75517-.347m-.74328,4.568a2.71224,2.71224,0,0,0,1.3-.33907,2.7221,2.7221,0,0,0,1.305.33907c1.80343,0,3.04269-1.87714,3.18748-3.47329.0099-.1065.01364-.21344.01364-.316a2.33507,2.33507,0,0,0-2.34715-2.47521,1.715,1.715,0,0,0-1.287.50213,2.08722,2.08722,0,0,1,1.99707,2.03359,1.98776,1.98776,0,0,1-.91779,1.77878,1.493,1.493,0,0,1-.56769.21256,3.1643,3.1643,0,0,0,.426-1.5319,1.77626,1.77626,0,0,0-1.78979-1.95812,1.74121,1.74121,0,0,0-1.746,1.53939v.00132a.60844.60844,0,0,0-.0154.09087,3.248,3.248,0,0,0-.02663.4238,2.96945,2.96945,0,0,0,.42974,1.43772,1.1878,1.1878,0,0,1-.5941-.21564,1.98542,1.98542,0,0,1-.92219-1.77878,2.08656,2.08656,0,0,1,1.99575-2.03359,1.70909,1.70909,0,0,0-1.28458-.50213A2.3353,2.3353,0,0,0,11.5,15.28082c0,.10254.00616.20948.015.316.14457,1.59615,1.37546,3.47329,3.1789,3.47329"/>
    <path class="cls-1" d="M17.5,5h-3a.5.5,0,0,1,0-1h3a.5.5,0,0,1,0,1Z"/>
  </g>
</svg>
