<svg width="32" height="32" viewBox="0 0 32 32" fill="none" xmlns="http://www.w3.org/2000/svg">
<path d="M22.476 0C21.5541 0 20.67 0.409161 20.0181 1.13747C19.3662 1.86578 19 2.85358 19 3.88357V17.8812C19.0002 18.0362 19.0554 18.1849 19.1535 18.2945C19.2516 18.4041 19.3846 18.4658 19.5234 18.466H20.3684L20.3798 30.4936C20.3798 30.5007 20.3798 30.5084 20.3798 30.5162C20.3798 30.5239 20.3798 30.5317 20.3798 30.5394C20.3798 30.9268 20.5175 31.2983 20.7627 31.5722C21.0078 31.8461 21.3403 32 21.6871 32C22.0338 32 22.3663 31.8461 22.6114 31.5722C22.8566 31.2983 22.9943 30.9268 22.9943 30.5394H23V0.58479C22.9998 0.429629 22.9445 0.280887 22.8463 0.171238C22.748 0.061589 22.6148 -1.12344e-07 22.476 0Z" fill="#3A474E"/>
<path d="M15.3092 -4.07554e-05H15.2782C15.095 -4.07554e-05 14.9193 0.0764416 14.7898 0.212581C14.6602 0.348721 14.5875 0.533366 14.5875 0.725896V7.26499C14.5842 7.46053 14.5072 7.64671 14.3734 7.78259C14.2396 7.91846 14.0598 7.99289 13.8738 7.98951C13.6877 7.98613 13.5106 7.90521 13.3813 7.76456C13.252 7.6239 13.1811 7.43503 13.1844 7.2395V5.85349V0.725896C13.1845 0.630419 13.1666 0.535863 13.1318 0.447654C13.0971 0.359444 13.0461 0.279318 12.9818 0.211871C12.9175 0.144424 12.8411 0.0909855 12.7571 0.0546203C12.6731 0.0182551 12.5831 -0.000320519 12.4922 -4.07554e-05H12.4808C12.2976 -4.07554e-05 12.1219 0.0764416 11.9923 0.212581C11.8628 0.348721 11.79 0.533366 11.79 0.725896V7.26641C11.7829 7.45674 11.7059 7.63679 11.5753 7.76882C11.4446 7.90084 11.2704 7.9746 11.0891 7.97464V7.97464C10.9068 7.97454 10.7316 7.8998 10.6008 7.76627C10.4699 7.63274 10.3937 7.45091 10.3883 7.25933V0.725896C10.3883 0.533366 10.3155 0.348721 10.186 0.212581C10.0564 0.0764416 9.88071 -4.07554e-05 9.69751 -4.07554e-05H9.69077C9.50756 -4.07554e-05 9.33186 0.0764416 9.20232 0.212581C9.07278 0.348721 9 0.533366 9 0.725896V8.11274C8.99989 8.82645 9.19735 9.52477 9.56829 10.1226C9.93924 10.7204 10.4677 11.1919 11.0891 11.4797V30.5247C11.0893 30.9159 11.2373 31.291 11.5005 31.5677C11.7637 31.8443 12.1207 31.9998 12.4929 32V32C12.6774 32.0002 12.8602 31.9623 13.0307 31.8883C13.2013 31.8143 13.3563 31.7056 13.4868 31.5686C13.6174 31.4316 13.721 31.2689 13.7917 31.0898C13.8623 30.9106 13.8987 30.7186 13.8987 30.5247V11.4846C14.5229 11.198 15.0541 10.7264 15.4273 10.1276C15.8004 9.52875 15.9995 8.82859 16 8.11274V0.725896C16 0.533366 15.9272 0.348721 15.7977 0.212581C15.6681 0.0764416 15.4924 -4.07554e-05 15.3092 -4.07554e-05V-4.07554e-05Z" fill="#3A474E"/>
</svg>
