<svg width="130" height="112" viewBox="0 0 130 112" fill="none" xmlns="http://www.w3.org/2000/svg">
<path fill-rule="evenodd" clip-rule="evenodd" d="M63.9727 82.6772C61.6971 82.6772 59.8353 80.8101 59.8353 78.5281V57.7825H51.5605V78.5281C51.5605 85.3742 57.146 90.9755 63.9727 90.9755H99.1287C101.42 90.9755 103.278 89.1179 103.278 86.8264C103.278 84.5349 101.42 82.6772 99.1287 82.6772H63.9727Z" fill="#00863D"/>
<g filter="url(#filter0_d)">
<path fill-rule="evenodd" clip-rule="evenodd" d="M47.7249 35.5784L46.7974 32.5554C45.4061 28.8348 41.9278 26.2769 37.9858 26.2769H34.2887C31.7202 26.2769 29.6379 28.3591 29.6379 30.9276C29.6379 33.4962 31.7202 35.5784 34.2887 35.5784H37.9858L50.7394 74.1798C51.4351 76.0401 53.0583 77.4354 55.1452 77.4354H99.2033C101.058 77.4354 102.682 76.2727 103.377 74.6449L115.908 46.868C118.296 41.5734 114.424 35.5784 108.615 35.5784H47.7249Z" fill="#00AB4E"/>
<path fill-rule="evenodd" clip-rule="evenodd" d="M47.7249 35.5784L46.7974 32.5554C45.4061 28.8348 41.9278 26.2769 37.9858 26.2769H34.2887C31.7202 26.2769 29.6379 28.3591 29.6379 30.9276C29.6379 33.4962 31.7202 35.5784 34.2887 35.5784H37.9858L50.7394 74.1798C51.4351 76.0401 53.0583 77.4354 55.1452 77.4354H99.2033C101.058 77.4354 102.682 76.2727 103.377 74.6449L115.908 46.868C118.296 41.5734 114.424 35.5784 108.615 35.5784H47.7249Z" fill="url(#paint0_linear)"/>
</g>
<path opacity="0.804022" fill-rule="evenodd" clip-rule="evenodd" d="M77.3719 48.7329C77.3719 48.7329 77.6109 46.958 79.8943 45.7625C82.9986 44.1365 86.3692 45.4945 86.3692 45.4945C86.8255 43.471 82.8923 40.3476 78.3668 42.4949C76.4321 43.4133 75.9369 45.0703 76.0025 46.1526C76.0918 47.6406 77.3719 48.7329 77.3719 48.7329ZM91.5617 56.7832C91.5945 56.4407 91.6096 56.1052 91.6096 55.7728C91.6096 50.0543 87.1306 47.863 83.9165 47.863C81.0699 47.863 79.7009 49.4725 79.7009 49.4725C82.6385 49.7626 86.2462 51.7817 86.2462 55.9654C86.2462 58.8729 84.8466 60.6463 83.2324 61.6447C82.2783 62.2328 81.3758 62.3286 81.3764 62.3278C82.3002 60.6832 82.7754 59.0446 82.7754 57.4336C82.7754 54.1344 80.8531 51.1842 76.906 51.1842C73.3341 51.1842 71.6354 53.7443 71.1814 56.0979C71.1617 56.2009 71.1447 56.2981 71.1302 56.395C71.0778 56.8024 71.0483 57.25 71.0483 57.7439C71.0483 59.5788 71.812 61.2531 72.4577 62.337C72.4583 62.3387 71.6403 62.3528 70.503 61.6491C68.887 60.6492 67.4823 58.8773 67.4823 55.9654C67.4823 51.7817 71.0902 49.7626 74.0278 49.4725C74.0278 49.4725 72.6581 47.863 69.8124 47.863C66.5979 47.863 62.1189 50.0543 62.1189 55.7728C62.1189 56.1052 62.1342 56.4407 62.1669 56.7832C62.6426 61.8808 66.6699 67.8771 72.5853 67.8771C74.118 67.8771 75.5504 67.4764 76.8344 66.7991C78.1184 67.4764 79.5809 67.8771 81.1136 67.8771C87.0287 67.8771 91.0861 61.8808 91.5617 56.7832ZM76.1293 54.3955C75.7516 54.8927 75.4111 55.7147 75.4111 56.8086C75.4111 58.1846 75.9613 59.7084 77.0074 60.9151C78.0534 59.7084 78.5988 58.2534 78.5988 56.8773C78.5988 55.5365 78.083 54.6098 77.4101 53.9882C77.4057 53.984 77.4009 53.9795 77.3959 53.9748C77.1887 53.7796 76.4497 53.0836 75.0658 53.0836C73.5483 53.0836 72.5272 54.1614 72.5272 54.1614C72.5272 54.1614 73.2379 53.6418 74.5834 53.7824C75.3943 53.8671 75.9484 54.2529 76.1293 54.3955Z" fill="white"/>
<ellipse cx="31.5624" cy="30.5133" rx="5.00498" ry="5.00642" fill="#125430"/>
<ellipse cx="95.8572" cy="100.985" rx="6.15997" ry="6.16174" fill="#125430"/>
<ellipse cx="95.8574" cy="100.984" rx="2.23999" ry="2.24063" fill="#079C4B"/>
<ellipse cx="59.6678" cy="100.985" rx="6.15997" ry="6.16174" fill="#125430"/>
<ellipse cx="59.6672" cy="100.984" rx="2.23999" ry="2.24063" fill="#079C4B"/>
<path fill-rule="evenodd" clip-rule="evenodd" d="M78.9803 17.2017C81.1004 17.2017 82.7965 15.4829 82.7965 13.3344V4.74035C82.7965 2.59185 81.1004 0.873047 78.9803 0.873047C76.8603 0.873047 75.1642 2.59185 75.1642 4.74035V13.3344C75.1642 15.4829 76.8603 17.2017 78.9803 17.2017ZM60.3334 19.414C61.0619 20.7088 62.3731 21.2842 63.6844 21.2842C64.4129 21.2842 64.9956 21.1404 65.5784 20.7088C67.4724 19.7018 68.0552 17.2561 67.0354 15.3859L62.6645 7.90511C61.6447 6.03491 59.1679 5.45947 57.2738 6.4665C55.3798 7.47353 54.797 9.91918 55.8169 11.7894L60.3334 19.414ZM93.6824 21.2842C93.1193 21.2842 92.4155 20.9938 91.8524 20.7033C90.0224 19.6868 89.4594 17.2179 90.304 15.4752L94.527 7.92341C95.6531 6.03547 97.9054 5.45457 99.7354 6.47115C101.565 7.63296 102.128 9.95658 101.143 11.8445L96.92 19.3963C96.2162 20.5581 94.9493 21.2842 93.6824 21.2842Z" fill="#00AB4E"/>
<defs>
<filter id="filter0_d" x="0.637939" y="18.2769" width="128.986" height="93.1585" filterUnits="userSpaceOnUse" color-interpolation-filters="sRGB">
<feFlood flood-opacity="0" result="BackgroundImageFix"/>
<feColorMatrix in="SourceAlpha" type="matrix" values="0 0 0 0 0 0 0 0 0 0 0 0 0 0 0 0 0 0 127 0"/>
<feOffset dx="-8" dy="13"/>
<feGaussianBlur stdDeviation="10.5"/>
<feColorMatrix type="matrix" values="0 0 0 0 0 0 0 0 0 0 0 0 0 0 0 0 0 0 0.261555 0"/>
<feBlend mode="normal" in2="BackgroundImageFix" result="effect1_dropShadow"/>
<feBlend mode="normal" in="SourceGraphic" in2="effect1_dropShadow" result="shape"/>
</filter>
<linearGradient id="paint0_linear" x1="29.6379" y1="26.2769" x2="29.6379" y2="77.4354" gradientUnits="userSpaceOnUse">
<stop stop-color="#33373A" stop-opacity="0.01"/>
<stop offset="1" stop-color="#33373A" stop-opacity="0.193154"/>
</linearGradient>
</defs>
</svg>
